<?xml version="1.0" standalone="no"?><!DOCTYPE svg PUBLIC "-//W3C//DTD SVG 1.1//EN" "http://www.w3.org/Graphics/SVG/1.1/DTD/svg11.dtd"><svg height="157" node-id="1" sillyvg="true" template-height="157" template-width="227" version="1.1" viewBox="0 0 227 157" width="227" xmlns="http://www.w3.org/2000/svg" xmlns:xlink="http://www.w3.org/1999/xlink"><defs node-id="112"></defs><g node-id="114"><path d="M 84.60 98.60 L 81.50 95.10 L 80.50 90.70 L 80.10 89.80 L 79.60 89.80 L 79.20 90.30 L 79.00 91.30 L 78.80 94.60 L 76.70 91.70 L 74.20 89.30 L 73.80 89.20 L 72.60 90.50 L 71.30 93.30 L 71.50 94.50 L 75.20 99.00 L 80.90 104.30 Z" fill="#ffffff" fill-rule="nonzero" group-id="1" id="路径_9192" node-id="2" stroke="none" target-height="15.100006" target-width="13.299995" target-x="71.3" target-y="89.2"></path></g><g node-id="115"><path d="M 80.90 104.60 L 78.20 102.50 L 75.00 99.20 L 71.20 94.60 L 70.90 94.00 L 71.30 92.20 L 72.40 90.20 L 73.60 88.90 L 75.00 89.40 L 78.40 93.50 L 78.90 90.10 L 79.40 89.50 L 80.10 89.40 L 80.90 90.90 L 81.80 95.00 L 84.80 98.40 L 84.80 98.80 L 80.90 104.60 Z M 74.00 89.50 L 72.90 90.70 L 72.00 92.50 L 71.60 93.90 L 75.30 98.50 L 80.80 103.80 L 84.10 98.70 L 81.20 95.20 L 80.30 90.90 L 79.80 90.00 L 79.20 91.80 L 78.90 94.90 L 78.50 94.80 L 75.80 91.10 L 74.00 89.50 Z" fill="#231f20" fill-rule="nonzero" group-id="2" id="路径_9193" node-id="3" stroke="none" target-height="15.699997" target-width="13.900002" target-x="70.9" target-y="88.9"></path></g><g node-id="116"><path d="M 114.50 80.20 L 104.70 92.50 L 99.60 98.10 L 95.40 102.10 L 94.10 102.90 L 92.80 102.90 L 90.20 100.70 L 83.40 96.10 L 77.90 103.70 L 84.00 109.00 L 89.80 113.20 L 92.80 115.10 L 97.30 117.00 L 99.90 116.90 L 101.70 115.90 L 106.90 111.00 L 115.40 101.40 L 121.40 93.90 Z" fill="#ff595e" fill-rule="nonzero" group-id="3" id="路径_9194" node-id="4" stroke="none" target-height="36.800003" target-width="43.5" target-x="77.9" target-y="80.2"></path></g><g node-id="117"><path d="M 103.10 94.30 L 98.90 91.50 L 94.20 85.30 L 93.70 85.90 L 93.70 86.70 L 95.40 91.40 L 90.60 90.30 L 85.70 89.90 L 85.60 90.90 L 86.20 92.70 L 89.90 96.00 L 91.60 97.00 L 96.90 98.90 L 101.20 101.50 L 102.20 101.60 L 103.10 101.00 L 103.30 97.50 L 103.10 94.30 Z" fill="#ffffff" fill-rule="nonzero" group-id="4" id="路径_9195" node-id="5" stroke="none" target-height="16.299995" target-width="17.700005" target-x="85.6" target-y="85.3"></path></g><g node-id="118"><path d="M 101.90 101.90 L 100.40 101.50 L 96.90 99.20 L 91.40 97.30 L 89.80 96.30 L 87.00 94.10 L 85.40 91.90 L 85.30 90.90 L 85.40 89.70 L 85.80 89.50 L 90.40 89.90 L 95.00 90.90 L 93.40 86.70 L 93.40 85.70 L 94.00 84.90 L 94.50 85.00 L 99.10 91.20 L 103.30 94.00 L 103.70 96.50 L 103.60 100.70 L 102.80 101.70 L 102.10 101.90 Z M 86.00 90.20 L 86.00 91.40 L 86.50 92.60 L 90.10 95.70 L 91.70 96.70 L 96.40 98.30 L 100.70 100.90 L 102.00 101.20 L 102.90 100.80 L 102.80 94.50 L 98.60 91.70 L 94.20 85.70 L 94.00 86.60 L 95.30 89.60 L 95.60 91.60 L 90.70 90.60 L 86.00 90.20 Z" fill="#231f20" fill-rule="nonzero" group-id="5" id="路径_9196" node-id="6" stroke="none" target-height="17" target-width="18.399994" target-x="85.3" target-y="84.9"></path></g><g node-id="119"><path d="M 134.10 39.30 L 137.30 40.50 L 139.80 42.70 L 141.30 45.70 L 142.10 51.10 L 142.60 52.30 L 144.20 54.20 L 146.40 55.00 L 147.70 54.90 L 150.50 53.70 L 151.70 52.50 L 151.60 55.80 L 150.20 58.70 L 149.20 59.90 L 147.80 61.00 L 145.80 61.80 L 143.70 62.20 L 141.60 62.10 L 139.50 61.60 L 136.90 60.40 L 134.50 58.90 L 132.30 57.00 L 130.00 54.50 L 128.10 51.70 L 126.90 48.60 L 126.10 45.30 L 126.20 43.90 L 127.10 41.70 L 128.50 40.50 L 130.20 39.70 L 132.20 39.30 L 134.10 39.30 Z" fill="#ffffff" fill-rule="nonzero" group-id="6" id="路径_9197" node-id="7" stroke="none" target-height="22.900002" target-width="25.599998" target-x="126.1" target-y="39.3"></path></g><g node-id="120"><path d="M 143.10 62.50 L 139.40 61.90 L 136.70 60.70 L 134.30 59.10 L 132.00 57.20 L 129.70 54.70 L 127.80 51.80 L 126.50 48.70 L 125.80 44.10 L 126.50 41.90 L 128.80 39.90 L 132.30 38.90 L 135.90 39.40 L 138.90 41.20 L 141.00 43.90 L 141.60 45.60 L 142.50 51.00 L 143.60 53.20 L 144.40 53.90 L 146.50 54.60 L 147.60 54.50 L 149.10 54.10 L 151.80 52.20 L 152.10 54.20 L 151.90 55.80 L 150.50 58.90 L 148.00 61.20 L 146.40 61.90 L 143.10 62.50 Z M 132.90 39.60 L 131.00 39.80 L 129.30 40.40 L 127.80 41.50 L 127.10 42.30 L 126.50 44.20 L 127.20 48.50 L 128.50 51.50 L 130.20 54.30 L 134.70 58.60 L 137.00 60.10 L 139.60 61.30 L 141.60 61.80 L 143.70 61.80 L 145.70 61.50 L 147.70 60.70 L 149.40 59.30 L 150.60 57.50 L 151.30 55.50 L 151.50 53.30 L 149.10 54.90 L 147.70 55.30 L 146.40 55.30 L 144.00 54.50 L 142.30 52.50 L 141.80 51.20 L 141.00 45.80 L 139.30 42.50 L 136.50 40.40 L 133.00 39.60 Z" fill="#231f20" fill-rule="nonzero" group-id="7" id="路径_9198" node-id="8" stroke="none" target-height="23.599998" target-width="26.300003" target-x="125.8" target-y="38.9"></path></g><g node-id="121"><path d="M 130.40 46.10 L 129.40 45.00 L 127.00 43.40 L 125.40 43.20 L 122.70 43.70 L 121.90 44.50 L 121.70 45.70 L 123.50 50.30 L 124.70 52.20 L 127.20 54.70 L 129.30 55.40 L 131.20 54.80 L 132.20 53.00 L 132.30 51.50 L 131.60 48.40 L 130.40 46.10 Z" fill="#231f20" fill-rule="nonzero" group-id="8" id="路径_9199" node-id="9" stroke="none" target-height="12.200001" target-width="10.600006" target-x="121.7" target-y="43.2"></path></g><g node-id="122"><path d="M 129.20 55.70 L 127.00 55.00 L 125.90 54.10 L 124.50 52.50 L 122.30 48.60 L 121.40 45.70 L 121.70 44.40 L 122.60 43.50 L 123.80 43.00 L 125.50 42.90 L 127.10 43.10 L 128.50 43.80 L 130.60 45.90 L 131.80 48.10 L 132.60 51.10 L 132.20 54.00 L 131.10 55.30 L 129.40 55.70 Z M 125.40 43.50 L 123.00 44.00 L 122.20 44.70 L 122.00 45.80 L 122.90 48.30 L 125.00 52.00 L 127.30 54.40 L 129.30 55.00 L 130.00 55.00 L 131.20 54.30 L 131.90 52.60 L 131.60 49.70 L 130.10 46.30 L 128.70 44.80 L 126.90 43.80 L 125.40 43.50 Z" fill="#231f20" fill-rule="nonzero" group-id="9" id="路径_9200" node-id="10" stroke="none" target-height="12.799999" target-width="11.200005" target-x="121.4" target-y="42.9"></path></g><g node-id="123"><path d="M 147.20 131.60 L 150.70 151.90 L 113.20 149.10 L 112.70 124.40 Z" fill="#231f20" fill-rule="nonzero" group-id="10" id="路径_9201" node-id="11" stroke="none" target-height="27.499992" target-width="38" target-x="112.7" target-y="124.4"></path></g><g node-id="124"><path d="M 150.70 152.20 L 113.00 149.30 L 112.40 124.40 L 112.80 124.10 L 147.30 131.20 L 147.60 131.50 L 151.10 151.80 L 150.70 152.20 Z M 113.60 148.80 L 150.30 151.50 L 146.90 131.90 L 113.10 124.80 Z" fill="#231f20" fill-rule="nonzero" group-id="11" id="路径_9202" node-id="12" stroke="none" target-height="28.099998" target-width="38.700005" target-x="112.4" target-y="124.1"></path></g><g node-id="125"><path d="M 132.00 76.80 L 134.90 78.60 L 139.00 82.40 L 141.40 85.20 L 143.50 88.50 L 145.50 92.60 L 146.70 97.80 L 147.60 106.10 L 149.00 133.80 L 139.30 135.30 L 130.00 136.00 L 125.00 135.90 L 120.20 135.40 L 117.00 134.70 L 111.60 132.70 L 111.50 114.30 L 110.40 100.20 L 110.50 93.80 L 111.20 87.50 L 111.80 84.70 L 112.70 82.60 L 115.00 79.70 L 118.70 77.80 L 121.20 77.20 L 132.00 76.80 Z" fill="#ff595e" fill-rule="nonzero" group-id="12" id="路径_9203" node-id="13" stroke="none" target-height="59.199997" target-width="38.6" target-x="110.4" target-y="76.8"></path></g><g node-id="126"><path d="M 111.70 116.70 L 111.30 116.30 L 110.30 93.90 L 111.70 87.20 L 112.40 85.20 L 113.00 85.10 L 111.30 91.50 L 110.90 93.90 L 112.00 116.30 L 111.70 116.70 Z" fill="#231f20" fill-rule="nonzero" group-id="13" id="路径_9204" node-id="14" stroke="none" target-height="31.599998" target-width="2.699997" target-x="110.3" target-y="85.1"></path></g><g node-id="127"><path d="M 129.50 48.80 L 127.40 46.10 L 125.90 45.10 L 124.20 44.50 L 120.50 44.60 L 117.60 45.70 L 117.00 46.70 L 115.80 46.40 L 113.50 47.10 L 111.10 50.00 L 110.10 52.40 L 109.60 54.90 L 109.80 60.20 L 110.80 64.20 L 111.60 65.70 L 114.10 67.70 L 116.80 68.80 L 119.60 69.20 L 122.40 69.10 L 125.20 68.40 L 128.40 66.70 L 130.90 64.00 L 131.70 62.30 L 132.30 60.30 L 132.50 58.40 L 131.90 54.40 L 129.50 48.80 Z" fill="#ffffff" fill-rule="nonzero" group-id="14" id="路径_9205" node-id="15" stroke="none" target-height="24.699997" target-width="22.900002" target-x="109.6" target-y="44.5"></path></g><g node-id="128"><path d="M 120.40 69.50 L 116.10 68.90 L 112.50 67.10 L 111.30 65.90 L 110.50 64.40 L 109.60 61.00 L 109.20 55.90 L 110.10 51.10 L 112.30 47.60 L 114.30 46.30 L 116.70 46.20 L 117.50 45.30 L 118.50 44.80 L 122.20 44.00 L 124.10 44.20 L 125.90 44.70 L 127.60 45.80 L 129.00 47.50 L 132.00 53.80 L 132.80 58.10 L 132.60 60.40 L 131.80 62.90 L 130.50 65.00 L 128.70 66.80 L 126.50 68.20 L 124.60 68.90 L 120.40 69.50 Z M 115.70 46.70 L 114.10 47.10 L 112.80 48.10 L 111.60 49.70 L 110.20 53.20 L 109.90 58.50 L 110.60 62.50 L 111.80 65.50 L 114.30 67.40 L 118.20 68.70 L 122.30 68.70 L 124.30 68.30 L 126.30 67.50 L 128.30 66.30 L 130.00 64.60 L 131.20 62.60 L 131.90 60.30 L 132.10 58.10 L 131.40 53.90 L 129.20 49.00 L 127.10 46.30 L 125.60 45.30 L 123.90 44.80 L 122.10 44.70 L 118.70 45.40 L 117.80 45.90 L 117.10 47.00 L 115.70 46.70 Z" fill="#231f20" fill-rule="nonzero" group-id="15" id="路径_9206" node-id="16" stroke="none" target-height="25.5" target-width="23.600006" target-x="109.2" target-y="44"></path></g><g node-id="129"><path d="M 118.30 69.90 L 118.80 76.50 L 119.50 76.80 L 121.50 77.20 L 125.00 76.50 L 128.00 75.20 L 129.40 73.90 L 128.20 61.70 L 125.70 59.10 L 123.90 57.70 L 120.10 55.60 L 119.10 54.70 L 117.90 52.40 L 117.80 51.00 L 117.30 53.80 L 116.40 55.00 L 114.20 57.10 L 113.50 59.20 L 114.10 66.90 L 114.60 68.30 L 116.40 69.60 L 118.30 69.90 Z" fill="#ffffff" fill-rule="nonzero" group-id="16" id="路径_9207" node-id="17" stroke="none" target-height="26.199997" target-width="15.899994" target-x="113.5" target-y="51"></path></g><g node-id="130"><path d="M 121.50 77.50 L 120.00 77.40 L 118.60 76.80 L 117.90 70.20 L 116.30 69.90 L 115.10 69.30 L 114.20 68.30 L 113.70 67.00 L 113.10 58.80 L 113.90 56.90 L 116.20 54.80 L 117.10 53.40 L 117.50 51.00 L 117.80 50.70 L 118.10 51.00 L 118.50 53.20 L 119.20 54.40 L 120.20 55.40 L 124.00 57.50 L 125.90 58.90 L 128.50 61.70 L 129.70 74.00 L 128.10 75.50 L 127.00 76.10 L 123.30 77.30 L 121.50 77.50 Z M 119.10 76.30 L 120.90 76.80 L 122.40 76.80 L 124.90 76.20 L 127.20 75.30 L 129.10 73.90 L 127.90 61.70 L 123.70 58.00 L 119.90 55.90 L 118.70 54.80 L 117.90 53.30 L 116.70 55.30 L 114.50 57.30 L 113.80 58.90 L 114.20 65.30 L 114.80 68.00 L 115.60 68.80 L 118.60 69.90 Z" fill="#231f20" fill-rule="nonzero" group-id="17" id="路径_9208" node-id="18" stroke="none" target-height="26.8" target-width="16.599998" target-x="113.1" target-y="50.7"></path></g><g node-id="131"><path d="M 125.60 61.70 L 126.50 60.10 L 127.90 59.20 L 128.80 58.90 L 129.50 59.10 L 130.60 60.10 L 130.60 62.70 L 129.90 63.90 L 128.80 64.70 L 127.50 65.10 L 126.20 64.90" fill="#ffffff" fill-rule="nonzero" group-id="18" id="路径_9209" node-id="19" stroke="none" target-height="6.199997" target-width="5.0000076" target-x="125.6" target-y="58.9"></path></g><g node-id="132"><path d="M 127.30 65.40 L 126.10 65.20 L 125.90 64.80 L 128.70 64.40 L 129.70 63.70 L 130.30 62.60 L 130.50 61.30 L 130.30 60.20 L 128.80 59.30 L 126.70 60.30 L 125.90 62.00 L 125.40 61.90 L 125.60 60.70 L 126.20 59.80 L 127.80 58.90 L 128.80 58.60 L 130.40 59.20 L 131.00 60.00 L 131.20 61.40 L 130.90 62.80 L 130.40 63.90 L 128.50 65.20 L 127.30 65.40 Z" fill="#231f20" fill-rule="nonzero" group-id="19" id="路径_9210" node-id="20" stroke="none" target-height="6.800003" target-width="5.7999954" target-x="125.4" target-y="58.6"></path></g><g node-id="133"><path d="M 119.00 59.00 L 117.40 62.60 L 117.50 63.10 L 118.00 63.30 L 119.60 63.10" fill="#ffffff" fill-rule="nonzero" group-id="20" id="路径_9211" node-id="21" stroke="none" target-height="4.299999" target-width="2.199997" target-x="117.4" target-y="59"></path></g><g node-id="134"><path d="M 118.40 63.70 L 117.30 63.30 L 117.10 62.70 L 117.40 61.50 L 118.90 58.70 L 119.30 59.10 L 117.70 62.80 L 119.70 62.90 L 119.90 63.30 L 118.40 63.70 Z" fill="#231f20" fill-rule="nonzero" group-id="21" id="路径_9212" node-id="22" stroke="none" target-height="5" target-width="2.800003" target-x="117.1" target-y="58.7"></path></g><g node-id="135"><path d="M 122.40 57.80 L 121.90 58.70 L 121.20 58.00 L 121.70 57.10 L 122.40 57.80 Z" fill="#231f20" fill-rule="nonzero" group-id="22" id="椭圆_119" node-id="23" stroke="none" target-height="1.6000023" target-width="1.2000046" target-x="121.2" target-y="57.1"></path></g><g node-id="136"><path d="M 117.10 58.50 L 116.90 59.10 L 116.50 59.30 L 116.20 59.10 L 116.10 57.90 L 116.50 57.70 L 116.90 57.90 L 117.10 58.50 Z" fill="#231f20" fill-rule="nonzero" group-id="23" id="椭圆_120" node-id="24" stroke="none" target-height="1.5999985" target-width="1" target-x="116.1" target-y="57.7"></path></g><g node-id="137"><path d="M 118.30 69.90 L 122.10 69.90 L 124.80 68.90 L 122.30 72.80 L 120.00 74.20 L 118.60 74.40 Z" fill="#231f20" fill-rule="nonzero" group-id="24" id="路径_9213" node-id="25" stroke="none" target-height="5.5" target-width="6.5" target-x="118.3" target-y="68.9"></path></g><g node-id="138"><path d="M 118.90 74.80 L 118.30 74.50 L 117.90 69.90 L 118.30 69.60 L 122.00 69.50 L 124.60 68.60 L 125.00 68.60 L 125.10 69.00 L 123.50 71.90 L 122.20 73.30 L 120.10 74.60 L 118.90 74.80 Z M 118.60 70.30 L 118.90 74.10 L 121.20 73.30 L 123.00 71.50 L 124.00 69.70 L 121.40 70.30 L 118.60 70.30 Z" fill="#231f20" fill-rule="nonzero" group-id="25" id="路径_9214" node-id="26" stroke="none" target-height="6.2000046" target-width="7.199997" target-x="117.9" target-y="68.6"></path></g><g node-id="139"><path d="M 115.90 76.50 L 115.20 79.50 L 132.00 76.80 L 130.70 73.50 Z" fill="#ffffff" fill-rule="nonzero" group-id="26" id="路径_9215" node-id="27" stroke="none" target-height="6" target-width="16.800003" target-x="115.2" target-y="73.5"></path></g><g node-id="140"><path d="M 115.20 79.90 L 114.90 79.50 L 115.80 76.20 L 130.70 73.20 L 131.10 73.40 L 132.40 76.70 L 132.10 77.20 L 115.30 79.90 Z M 116.10 76.80 L 115.60 79.10 L 131.50 76.60 L 130.50 73.90 Z" fill="#231f20" fill-rule="nonzero" group-id="27" id="路径_9216" node-id="28" stroke="none" target-height="6.7000046" target-width="17.499992" target-x="114.9" target-y="73.2"></path></g><g node-id="141"><path d="M 118.00 68.30 L 117.10 67.80 L 116.80 67.20 L 116.70 65.60 L 116.90 64.70 L 117.20 64.40 L 120.10 64.90 L 119.70 66.50 L 118.90 67.90 L 118.00 68.30 Z M 117.50 65.10 L 117.40 66.60 L 117.90 67.60 L 118.20 67.60 L 119.00 66.50 L 119.40 65.30 L 117.50 65.10 Z" fill="#231f20" fill-rule="nonzero" group-id="28" id="路径_9217" node-id="29" stroke="none" target-height="3.9000015" target-width="3.4000015" target-x="116.7" target-y="64.4"></path></g><g node-id="142"><path d="M 138.00 91.60 L 130.00 103.50 L 129.40 103.70 L 127.50 103.30 L 122.20 101.30 L 102.00 91.80 L 98.00 100.80 L 113.00 110.40 L 121.30 115.30 L 132.50 121.00 L 136.50 122.20 L 137.70 121.60 L 139.10 117.60 L 143.50 99.40" fill="#ff595e" fill-rule="nonzero" group-id="29" id="路径_9218" node-id="30" stroke="none" target-height="30.599998" target-width="45.5" target-x="98" target-y="91.6"></path></g><g node-id="143"><path d="M 127.30 103.20 L 123.50 102.30 L 118.00 100.20 L 104.50 94.00 L 104.50 93.40 L 118.50 99.70 L 124.30 101.90 L 127.60 102.50 L 129.80 100.30 L 132.30 96.00 L 136.90 86.90 L 137.30 87.40 L 131.90 98.20 L 128.90 102.40 L 127.30 103.20 Z" fill="#231f20" fill-rule="nonzero" group-id="30" id="路径_9219" node-id="31" stroke="none" target-height="16.299995" target-width="32.800003" target-x="104.5" target-y="86.9"></path></g><g node-id="144"><path d="M 130.80 118.70 L 126.90 118.00 L 124.20 117.00 L 115.90 112.90 L 101.30 103.60 L 98.40 101.50 L 98.60 100.90 L 113.20 110.50 L 120.80 114.70 L 127.60 117.50 L 131.20 118.00 L 132.30 117.80 L 134.90 115.30 L 138.50 110.30 L 145.00 100.10 L 145.50 100.00 L 145.60 100.40 L 141.70 106.70 L 135.00 116.10 L 132.60 118.40 L 130.80 118.70 Z" fill="#231f20" fill-rule="nonzero" group-id="31" id="路径_9220" node-id="32" stroke="none" target-height="18.699997" target-width="47.200005" target-x="98.4" target-y="100"></path></g><g node-id="145"><path d="M 78.80 99.00 L 78.10 97.70 L 78.00 96.60 L 78.50 94.40 L 79.10 94.40 L 78.70 96.00 L 79.10 98.50 L 78.80 99.00 Z" fill="#231f20" fill-rule="nonzero" group-id="32" id="路径_9221" node-id="33" stroke="none" target-height="4.5999985" target-width="1.0999985" target-x="78" target-y="94.4"></path></g><g node-id="146"><path d="M 33.20 78.20 L 17.30 78.20 L 14.50 78.50 L 11.80 79.40 L 9.40 80.80 L 7.40 82.80 L 5.80 85.10 L 4.80 87.70 L 4.40 90.50 L 4.60 93.30 L 16.00 156.60 L 58.10 156.60 L 45.40 86.80 L 43.50 83.30 L 40.70 80.60 L 37.20 78.80 L 33.20 78.20 Z" fill="#ffffff" fill-rule="nonzero" group-id="33" id="路径_9222" node-id="34" stroke="none" target-height="78.40001" target-width="53.699997" target-x="4.4" target-y="78.2"></path></g><g node-id="147"><path d="M 58.10 157.00 L 16.00 157.00 L 15.60 156.70 L 4.20 93.40 L 4.10 90.50 L 4.50 87.70 L 5.50 85.00 L 7.10 82.60 L 9.20 80.60 L 11.70 79.10 L 14.40 78.20 L 17.30 77.90 L 33.20 77.90 L 37.30 78.50 L 39.20 79.30 L 42.40 81.60 L 44.90 84.80 L 46.20 88.80 L 58.50 156.60 L 58.20 157.00 Z M 16.30 156.30 L 57.70 156.30 L 45.60 88.80 L 45.10 86.90 L 43.30 83.50 L 40.50 80.90 L 37.10 79.10 L 33.20 78.50 L 17.30 78.50 L 14.50 78.80 L 12.00 79.70 L 9.60 81.10 L 7.60 83.00 L 6.10 85.30 L 5.10 87.90 L 4.70 90.60 L 4.90 93.30 Z" fill="#231f20" fill-rule="nonzero" group-id="34" id="路径_9223" node-id="35" stroke="none" target-height="79.1" target-width="54.4" target-x="4.1" target-y="77.9"></path></g><g node-id="148"><path d="M 63.90 118.20 L 65.00 129.70 L 66.20 135.80 L 66.50 136.30 L 69.20 136.70 L 80.70 138.00 L 79.30 144.70 L 70.50 144.90 L 62.90 144.60 L 56.40 143.60 L 54.60 142.90 L 53.20 141.50 L 51.70 130.10 L 50.40 114.90 Z" fill="#ffffff" fill-rule="nonzero" group-id="35" id="路径_9224" node-id="36" stroke="none" target-height="29.999992" target-width="30.299995" target-x="50.4" target-y="114.9"></path></g><g node-id="149"><path d="M 71.70 145.20 L 65.70 145.10 L 59.80 144.60 L 55.10 143.40 L 53.20 142.20 L 52.80 141.50 L 52.10 137.10 L 51.30 130.40 L 50.10 114.90 L 50.50 114.50 L 64.00 117.90 L 64.30 118.20 L 65.80 132.90 L 66.60 136.00 L 80.90 137.80 L 79.70 144.80 L 79.30 145.10 L 71.70 145.20 Z M 50.80 115.30 L 52.10 131.30 L 53.50 141.30 L 54.50 142.50 L 58.00 143.60 L 67.30 144.50 L 79.00 144.40 L 80.30 138.20 L 68.80 137.00 L 66.40 136.60 L 66.00 136.10 L 64.80 129.90 L 63.60 118.50 Z" fill="#231f20" fill-rule="nonzero" group-id="36" id="路径_9225" node-id="37" stroke="none" target-height="30.699997" target-width="30.800003" target-x="50.1" target-y="114.5"></path></g><g node-id="150"><path d="M 52.20 92.60 L 56.70 96.10 L 58.50 97.90 L 62.20 103.00 L 63.70 106.30 L 65.20 111.00 L 66.20 114.40 L 67.30 121.10 L 47.50 121.10 Z" fill="#ff595e" fill-rule="nonzero" group-id="37" id="路径_9226" node-id="38" stroke="none" target-height="28.5" target-width="19.800003" target-x="47.5" target-y="92.6"></path></g><g node-id="151"><path d="M 35.40 91.20 L 31.60 92.60 L 28.60 94.30 L 26.70 96.60 L 26.40 97.90 L 26.40 110.80 L 28.20 145.60 L 62.30 146.60 L 60.50 138.60 L 58.70 127.50 L 58.40 121.10 L 59.40 113.90 L 59.30 107.90 L 58.20 98.60 L 57.50 97.10 L 54.20 94.20 L 49.10 91.20 L 48.10 90.80 L 41.50 90.70 L 35.40 91.20 Z" fill="#ff595e" fill-rule="nonzero" group-id="38" id="路径_9227" node-id="39" stroke="none" target-height="55.90001" target-width="35.9" target-x="26.4" target-y="90.7"></path></g><g node-id="152"><path d="M 46.50 146.50 L 46.20 146.10 L 47.60 135.80 L 48.90 118.50 L 49.00 111.90 L 48.30 98.30 L 48.60 98.00 L 49.00 98.30 L 49.30 101.90 L 49.50 118.50 L 48.30 135.90 L 46.80 146.30 L 46.50 146.50 Z" fill="#231f20" fill-rule="nonzero" group-id="39" id="路径_9228" node-id="40" stroke="none" target-height="48.5" target-width="3.2999992" target-x="46.2" target-y="98"></path></g><g node-id="153"><path d="M 37.50 79.80 L 35.40 75.80 L 35.30 70.40 L 35.70 68.40 L 37.00 65.50 L 38.00 64.60 L 39.20 64.30 L 40.40 64.80 L 40.40 62.90 L 41.90 61.50 L 45.00 60.30 L 47.10 60.00 L 49.80 60.60 L 50.90 61.40 L 53.50 65.80 L 55.30 66.90 L 56.20 66.80 L 57.20 66.20 L 58.30 64.40 L 58.40 67.20 L 57.20 69.70 L 59.60 68.10 L 59.30 69.80 L 58.40 71.20 L 56.90 72.30 L 54.40 73.40 L 53.80 74.00 L 53.60 76.20 L 52.80 77.80 L 51.70 79.20 L 50.30 80.40 L 46.90 81.70 L 44.20 81.90 L 40.10 81.20 L 37.50 79.80 Z" fill="#ffffff" fill-rule="nonzero" group-id="40" id="路径_9229" node-id="41" stroke="none" target-height="21.900002" target-width="24.3" target-x="35.3" target-y="60"></path></g><g node-id="154"><path d="M 44.80 82.30 L 39.90 81.60 L 37.50 80.40 L 35.50 77.10 L 35.00 75.40 L 34.90 70.40 L 36.10 66.50 L 36.80 65.30 L 37.80 64.40 L 38.80 64.00 L 39.80 64.10 L 40.60 62.20 L 41.70 61.30 L 45.00 60.00 L 47.10 59.70 L 48.60 59.80 L 51.20 61.30 L 53.80 65.60 L 55.40 66.60 L 56.80 66.30 L 58.40 64.10 L 58.70 64.40 L 58.90 65.90 L 58.30 68.90 L 59.40 68.00 L 59.80 67.90 L 60.00 68.20 L 59.80 69.40 L 58.70 71.50 L 54.10 74.20 L 53.90 76.40 L 52.00 79.50 L 48.90 81.60 L 47.00 82.10 L 44.80 82.30 Z M 37.80 79.60 L 40.20 80.90 L 41.60 81.20 L 44.20 81.50 L 46.90 81.40 L 48.60 80.90 L 51.50 79.00 L 52.60 77.60 L 53.30 76.10 L 53.50 73.90 L 54.00 73.30 L 56.80 72.00 L 58.20 70.90 L 59.20 69.10 L 57.40 70.10 L 56.90 70.00 L 58.10 67.00 L 58.20 65.60 L 57.50 66.60 L 56.40 67.20 L 55.30 67.30 L 54.30 66.90 L 52.70 65.20 L 50.60 61.70 L 49.60 61.00 L 47.10 60.40 L 45.10 60.70 L 42.00 61.90 L 41.10 62.60 L 40.60 63.60 L 40.50 65.20 L 39.10 64.70 L 38.10 65.00 L 37.30 65.80 L 36.00 68.60 L 35.60 70.50 L 35.70 75.20 L 36.10 76.80 L 37.80 79.60 Z" fill="#231f20" fill-rule="nonzero" group-id="41" id="路径_9230" node-id="42" stroke="none" target-height="22.600002" target-width="25.099998" target-x="34.9" target-y="59.7"></path></g><g node-id="155"><path d="M 51.20 88.50 L 51.90 92.90 L 51.70 93.80 L 50.30 96.90 L 49.30 97.80 L 48.10 98.20 L 46.40 98.10 L 44.30 97.30 L 42.50 96.10 L 40.90 94.60 L 39.70 92.70 L 39.10 81.20 L 40.60 79.40 L 41.40 77.40 L 41.70 75.10 L 41.50 71.50 L 44.50 72.60 L 47.60 73.20 L 50.80 73.40 L 54.00 73.10 L 55.20 81.40 L 55.10 84.80 L 54.70 86.20 L 53.90 87.40 L 52.70 88.20 L 51.20 88.50 Z" fill="#ffffff" fill-rule="nonzero" group-id="42" id="路径_9231" node-id="43" stroke="none" target-height="26.699997" target-width="16.100002" target-x="39.1" target-y="71.5"></path></g><g node-id="156"><path d="M 47.50 98.60 L 44.20 97.60 L 42.20 96.40 L 40.60 94.80 L 39.40 92.80 L 38.80 81.20 L 40.40 79.10 L 41.10 77.20 L 41.40 75.00 L 41.40 71.30 L 47.70 72.90 L 50.80 73.10 L 53.90 72.80 L 54.30 73.10 L 55.60 81.50 L 55.50 84.90 L 55.10 86.30 L 54.30 87.50 L 53.10 88.40 L 51.70 88.90 L 52.30 92.90 L 51.30 96.00 L 49.80 97.90 L 47.50 98.60 Z M 40.10 92.60 L 41.30 94.40 L 42.80 95.90 L 44.50 97.00 L 46.50 97.80 L 48.00 97.90 L 49.40 97.30 L 50.70 95.70 L 51.60 92.90 L 51.00 88.30 L 52.60 87.90 L 53.70 87.10 L 54.40 86.10 L 54.80 84.70 L 54.80 80.70 L 53.70 73.50 L 47.80 73.50 L 42.00 72.10 L 42.10 75.10 L 41.80 77.20 L 40.60 80.10 L 39.50 81.30 Z" fill="#231f20" fill-rule="nonzero" group-id="43" id="路径_9232" node-id="44" stroke="none" target-height="27.299995" target-width="16.8" target-x="38.8" target-y="71.3"></path></g><g node-id="157"><path d="M 48.80 77.80 L 50.50 82.10 L 50.30 82.60 L 49.70 82.90 L 47.90 82.60" fill="#ffffff" fill-rule="nonzero" group-id="44" id="路径_9233" node-id="45" stroke="none" target-height="5.0999985" target-width="2.5999985" target-x="47.9" target-y="77.8"></path></g><g node-id="158"><path d="M 49.40 83.20 L 47.60 82.80 L 47.80 82.30 L 49.20 82.60 L 50.10 82.40 L 49.80 80.80 L 48.50 78.00 L 48.60 77.50 L 49.10 77.70 L 50.70 81.60 L 50.60 82.90 L 49.40 83.20 Z" fill="#231f20" fill-rule="nonzero" group-id="45" id="路径_9234" node-id="46" stroke="none" target-height="5.699997" target-width="3.1000023" target-x="47.6" target-y="77.5"></path></g><g node-id="159"><path d="M 47.00 77.00 L 46.50 78.10 L 46.00 77.00 L 46.50 76.00 L 47.00 77.00 Z" fill="#231f20" fill-rule="nonzero" group-id="46" id="椭圆_121" node-id="47" stroke="none" target-height="2.0999985" target-width="1" target-x="46" target-y="76"></path></g><g node-id="160"><path d="M 53.00 77.20 L 52.90 78.10 L 52.60 78.30 L 52.30 78.10 L 52.20 76.50 L 52.50 76.20 L 52.80 76.40 L 53.00 77.20 Z" fill="#231f20" fill-rule="nonzero" group-id="47" id="椭圆_122" node-id="48" stroke="none" target-height="2.100006" target-width="0.79999924" target-x="52.2" target-y="76.2"></path></g><g node-id="161"><path d="M 42.20 79.20 L 40.50 77.30 L 39.30 76.80 L 38.20 77.10 L 36.80 78.60 L 36.30 80.40 L 37.10 82.20 L 38.00 83.00 L 40.10 83.90" fill="#ffffff" fill-rule="nonzero" group-id="48" id="路径_9235" node-id="49" stroke="none" target-height="7.0999985" target-width="5.9000015" target-x="36.3" target-y="76.8"></path></g><g node-id="162"><path d="M 40.10 84.20 L 37.80 83.20 L 36.80 82.40 L 36.10 81.30 L 36.10 79.60 L 36.50 78.50 L 38.10 76.80 L 39.30 76.40 L 40.10 76.60 L 41.70 77.90 L 42.50 79.00 L 42.10 79.50 L 40.30 77.60 L 39.30 77.10 L 38.40 77.40 L 37.30 78.40 L 36.70 79.70 L 36.80 81.10 L 38.10 82.70 L 40.40 83.70 L 40.10 84.20 Z" fill="#231f20" fill-rule="nonzero" group-id="49" id="路径_9236" node-id="50" stroke="none" target-height="7.7999954" target-width="6.4000015" target-x="36.1" target-y="76.4"></path></g><g node-id="163"><path d="M 51.20 88.50 L 48.40 88.60 L 45.80 88.20 L 43.20 87.20 L 45.80 90.20 L 47.10 91.20 L 50.20 92.60 L 51.90 92.50 Z" fill="#231f20" fill-rule="nonzero" group-id="50" id="路径_9237" node-id="51" stroke="none" target-height="5.4000015" target-width="8.700001" target-x="43.2" target-y="87.2"></path></g><g node-id="164"><path d="M 50.90 93.00 L 48.90 92.60 L 47.00 91.60 L 44.10 89.00 L 42.90 87.40 L 42.90 87.00 L 43.30 86.90 L 45.80 87.90 L 48.40 88.30 L 51.40 88.20 L 52.10 92.50 L 51.90 92.90 L 50.90 93.00 Z M 44.20 88.00 L 47.20 90.90 L 50.00 92.20 L 51.50 92.30 L 50.90 88.90 L 48.60 89.00 L 44.20 88.00 Z" fill="#231f20" fill-rule="nonzero" group-id="51" id="路径_9238" node-id="52" stroke="none" target-height="6.0999985" target-width="9.199997" target-x="42.9" target-y="86.9"></path></g><g node-id="165"><path d="M 45.10 80.90 L 44.00 80.70 L 42.20 79.50 L 41.30 77.40 L 41.70 75.20 L 42.40 74.30 L 44.40 73.20 L 46.60 73.50 L 47.60 74.00 L 48.80 75.90 L 49.00 77.00 L 48.70 78.50 L 47.90 79.80 L 46.70 80.60 L 45.10 80.90 Z M 45.10 73.90 L 44.20 74.00 L 42.70 75.00 L 42.00 76.70 L 42.30 78.50 L 42.90 79.30 L 44.50 80.20 L 46.40 80.00 L 47.20 79.50 L 48.20 78.00 L 48.30 77.00 L 48.10 75.80 L 47.40 74.80 L 46.40 74.10 L 45.10 73.90 Z" fill="#231f20" fill-rule="nonzero" group-id="52" id="路径_9239" node-id="53" stroke="none" target-height="7.7000046" target-width="7.700001" target-x="41.3" target-y="73.2"></path></g><g node-id="166"><path d="M 52.70 80.90 L 51.20 80.60 L 50.00 79.80 L 49.20 78.50 L 48.90 77.00 L 49.20 75.50 L 50.00 74.30 L 51.20 73.50 L 52.70 73.20 L 54.20 73.50 L 55.50 74.30 L 56.30 75.50 L 56.60 77.00 L 56.30 78.50 L 55.50 79.80 L 54.20 80.60 L 52.70 80.90 Z M 52.70 73.90 L 51.80 74.00 L 50.30 75.00 L 49.60 76.70 L 49.90 78.50 L 50.50 79.30 L 52.10 80.20 L 53.90 80.00 L 54.80 79.50 L 55.80 78.00 L 55.90 77.00 L 55.60 75.80 L 55.00 74.80 L 54.00 74.10 L 52.70 73.90 Z" fill="#231f20" fill-rule="nonzero" group-id="53" id="路径_9240" node-id="54" stroke="none" target-height="7.7000046" target-width="7.699997" target-x="48.9" target-y="73.2"></path></g><g node-id="167"><path d="M 49.20 84.90 L 47.20 83.90 L 47.10 85.20 L 47.50 85.90 L 48.10 85.90 L 49.20 84.90 Z" fill="#231f20" fill-rule="nonzero" group-id="54" id="路径_9241" node-id="55" stroke="none" target-height="2" target-width="2.1000023" target-x="47.1" target-y="83.9"></path></g><g node-id="168"><path d="M 47.80 86.30 L 46.90 85.90 L 46.70 85.40 L 47.00 83.60 L 49.50 84.80 L 48.90 85.70 L 47.80 86.30 Z M 47.40 84.40 L 47.60 85.60 L 48.70 85.00 Z" fill="#231f20" fill-rule="nonzero" group-id="55" id="路径_9242" node-id="56" stroke="none" target-height="2.7000046" target-width="2.7999992" target-x="46.7" target-y="83.6"></path></g><g node-id="169"><path d="M 95.60 145.70 L 49.60 145.70 L 49.60 142.80 L 95.60 142.80 Z" fill="#ffffff" fill-rule="nonzero" group-id="56" id="矩形_3248" node-id="57" stroke="none" target-height="2.899994" target-width="46" target-x="49.6" target-y="142.8"></path></g><g node-id="170"><path d="M 95.60 146.10 L 49.60 146.10 L 49.20 145.70 L 49.20 142.80 L 49.60 142.50 L 95.60 142.50 L 95.90 142.80 L 95.90 145.70 L 95.60 146.10 Z M 49.90 145.40 L 95.30 145.40 L 95.30 143.10 L 49.90 143.10 Z" fill="#231f20" fill-rule="nonzero" group-id="57" id="路径_9243" node-id="58" stroke="none" target-height="3.600006" target-width="46.7" target-x="49.2" target-y="142.5"></path></g><g node-id="171"><path d="M 22.20 117.80 L 20.60 134.40 L 20.30 141.20 L 20.80 144.70 L 23.90 145.30 L 38.50 144.20 L 57.40 142.10 L 65.10 142.50 L 66.20 142.20 L 66.90 141.50 L 67.20 140.50 L 66.50 139.00 L 64.30 137.80 L 62.50 137.40 L 58.90 137.30 L 55.30 138.00 L 53.00 138.20 L 32.40 137.10 L 33.00 117.80 Z" fill="#ffffff" fill-rule="nonzero" group-id="58" id="路径_9244" node-id="59" stroke="none" target-height="27.5" target-width="46.899998" target-x="20.3" target-y="117.8"></path></g><g node-id="172"><path d="M 24.50 145.60 L 22.20 145.50 L 20.50 145.00 L 20.00 141.60 L 20.80 127.80 L 21.90 117.80 L 22.20 117.50 L 33.20 117.60 L 32.70 136.80 L 52.60 137.80 L 55.10 137.70 L 58.80 136.90 L 62.50 137.10 L 65.90 138.10 L 66.70 138.70 L 67.50 140.40 L 66.90 142.10 L 65.80 142.60 L 64.30 142.80 L 57.40 142.40 L 34.80 145.00 L 24.50 145.60 Z M 22.50 118.20 L 20.90 134.60 L 20.60 141.20 L 21.00 144.60 L 23.80 145.00 L 36.90 144.10 L 57.40 141.80 L 64.10 142.20 L 65.60 142.00 L 66.40 141.60 L 66.80 141.10 L 66.40 139.40 L 65.50 138.70 L 62.50 137.80 L 59.00 137.60 L 53.30 138.50 L 47.60 138.40 L 32.10 137.40 L 32.70 118.20 Z" fill="#231f20" fill-rule="nonzero" group-id="59" id="路径_9245" node-id="60" stroke="none" target-height="28.100006" target-width="47.5" target-x="20" target-y="117.5"></path></g><g node-id="173"><path d="M 73.70 116.10 L 102.10 116.10 L 95.40 142.90 L 67.10 142.90 Z" fill="#ffffff" fill-rule="nonzero" group-id="60" id="路径_9246" node-id="61" stroke="none" target-height="26.799995" target-width="35" target-x="67.1" target-y="116.1"></path></g><g node-id="174"><path d="M 95.40 143.20 L 66.80 143.10 L 73.40 116.00 L 73.70 115.70 L 102.40 115.80 L 95.70 143.00 L 95.40 143.20 Z M 67.50 142.60 L 95.20 142.60 L 101.70 116.40 L 74.00 116.40 Z" fill="#231f20" fill-rule="nonzero" group-id="61" id="路径_9247" node-id="62" stroke="none" target-height="27.5" target-width="35.6" target-x="66.8" target-y="115.7"></path></g><g node-id="175"><path d="M 30.40 94.50 L 27.30 95.60 L 24.20 99.50 L 23.10 101.50 L 22.20 104.00 L 21.00 109.00 L 20.20 114.20 L 19.90 119.40 L 28.30 121.40 L 33.20 121.50 L 35.10 120.90 L 36.30 107.50 L 36.10 101.20 L 35.70 98.50 L 35.10 96.60 L 33.20 94.30 L 31.50 94.10 L 30.40 94.50 Z" fill="#ff595e" fill-rule="nonzero" group-id="62" id="路径_9248" node-id="63" stroke="none" target-height="27.400002" target-width="16.4" target-x="19.9" target-y="94.1"></path></g><g node-id="176"><path d="M 35.40 118.50 L 35.10 118.10 L 36.50 108.30 L 36.60 102.20 L 35.70 97.90 L 34.10 95.60 L 34.60 95.30 L 36.20 97.50 L 36.80 99.20 L 37.30 104.90 L 36.90 111.00 L 35.80 118.30 L 35.40 118.50 Z" fill="#231f20" fill-rule="nonzero" group-id="63" id="路径_9249" node-id="64" stroke="none" target-height="23.199997" target-width="3.2000008" target-x="34.1" target-y="95.3"></path></g><g node-id="177"><path d="M 58.30 121.40 L 58.00 121.10 L 59.00 113.00 L 59.10 106.40 L 58.00 100.60 L 58.60 100.70 L 59.30 103.10 L 59.80 109.50 L 59.00 118.50 L 58.60 121.20 L 58.30 121.40 Z" fill="#231f20" fill-rule="nonzero" group-id="64" id="路径_9250" node-id="65" stroke="none" target-height="20.800003" target-width="1.7999992" target-x="58" target-y="100.6"></path></g><g node-id="178"><path d="M 0.30 145.70 L 183.20 145.70 L 183.20 150.00 L 0.30 150.00 Z" fill="#ffffff" fill-rule="nonzero" group-id="65" id="矩形_3249" node-id="66" stroke="none" target-height="4.300003" target-width="182.9" target-x="0.3" target-y="145.7"></path></g><g node-id="179"><path d="M 183.20 150.30 L 0.30 150.30 L 0.00 150.00 L 0.00 145.70 L 0.30 145.40 L 183.20 145.40 L 183.60 145.70 L 183.60 150.00 L 183.20 150.30 Z M 0.70 149.70 L 182.90 149.70 L 182.90 146.10 L 0.70 146.10 Z" fill="#231f20" fill-rule="nonzero" group-id="66" id="路径_9251" node-id="67" stroke="none" target-height="4.900009" target-width="183.6" target-x="0" target-y="145.4"></path></g><g node-id="180"><path d="M 4.40 150.00 L 179.20 150.00 L 179.20 156.70 L 4.40 156.70 Z" fill="#ffffff" fill-rule="nonzero" group-id="67" id="矩形_3250" node-id="68" stroke="none" target-height="6.699997" target-width="174.8" target-x="4.4" target-y="150"></path></g><g node-id="181"><path d="M 179.20 157.10 L 4.40 157.10 L 4.00 156.70 L 4.10 149.70 L 179.20 149.60 L 179.50 150.00 L 179.50 156.70 L 179.20 157.10 Z M 4.70 156.40 L 178.80 156.40 L 178.80 150.30 L 4.70 150.30 Z" fill="#231f20" fill-rule="nonzero" group-id="68" id="路径_9252" node-id="69" stroke="none" target-height="7.5" target-width="175.5" target-x="4" target-y="149.6"></path></g><g node-id="182"><path d="M 88.60 38.10 L 88.40 41.00 L 87.80 43.80 L 86.80 46.40 L 85.40 48.80 L 81.70 53.00 L 79.50 54.70 L 77.00 56.00 L 74.20 57.00 L 73.80 59.80 L 71.80 64.50 L 70.50 66.40 L 66.70 70.30 L 68.10 68.40 L 70.00 64.40 L 70.60 59.90 L 70.40 57.60 L 53.90 57.70 L 50.30 57.30 L 47.10 56.40 L 44.10 55.00 L 41.30 53.00 L 39.00 50.70 L 37.10 47.90 L 35.60 44.90 L 34.70 41.60 L 34.40 38.10 L 34.70 34.50 L 35.60 31.20 L 37.10 28.20 L 39.00 25.40 L 41.30 23.10 L 44.10 21.20 L 47.10 19.70 L 50.30 18.80 L 53.90 18.40 L 69.00 18.40 L 71.60 18.60 L 76.50 19.90 L 80.90 22.50 L 82.90 24.20 L 84.60 26.10 L 87.10 30.60 L 88.50 35.50 L 88.60 38.10 Z" fill="#ffffff" fill-rule="nonzero" group-id="69" id="路径_9253" node-id="70" stroke="none" target-height="51.9" target-width="54.199997" target-x="34.4" target-y="18.4"></path></g><g node-id="183"><path d="M 66.70 70.60 L 66.40 70.10 L 67.80 68.30 L 69.60 64.40 L 70.20 60.20 L 70.10 58.00 L 53.90 58.00 L 50.30 57.70 L 46.90 56.80 L 43.80 55.30 L 41.00 53.30 L 38.60 50.90 L 36.70 48.10 L 35.20 45.00 L 34.30 41.70 L 33.90 38.00 L 34.30 34.40 L 35.20 31.10 L 36.70 28.00 L 38.60 25.20 L 41.00 22.80 L 43.80 20.80 L 46.90 19.30 L 50.30 18.40 L 53.90 18.10 L 69.00 18.10 L 72.30 18.40 L 75.40 19.10 L 78.20 20.30 L 80.90 22.00 L 83.20 24.00 L 85.20 26.40 L 86.90 29.10 L 88.00 32.00 L 88.80 35.30 L 89.00 38.60 L 88.60 41.70 L 87.80 44.70 L 86.50 47.60 L 84.90 50.20 L 82.80 52.50 L 80.30 54.50 L 77.60 56.10 L 74.50 57.20 L 74.10 60.00 L 72.00 64.80 L 70.70 66.70 L 66.70 70.60 Z M 70.40 57.30 L 70.70 57.60 L 70.90 60.30 L 70.70 62.90 L 69.90 65.50 L 68.80 67.90 L 72.00 63.40 L 72.90 61.50 L 74.10 56.70 L 77.10 55.60 L 79.80 54.10 L 82.10 52.20 L 84.20 49.90 L 85.80 47.40 L 87.10 44.70 L 87.90 41.70 L 88.20 38.70 L 88.10 35.50 L 87.40 32.40 L 86.30 29.50 L 84.70 26.90 L 82.80 24.60 L 80.50 22.60 L 77.90 21.00 L 75.20 19.80 L 72.20 19.10 L 69.00 18.80 L 53.90 18.80 L 50.40 19.10 L 47.20 20.00 L 44.20 21.40 L 41.50 23.30 L 39.20 25.60 L 37.20 28.30 L 35.80 31.30 L 34.90 34.50 L 34.60 38.10 L 34.90 41.60 L 35.80 44.80 L 37.20 47.80 L 39.20 50.50 L 41.50 52.80 L 44.20 54.70 L 47.20 56.10 L 50.40 57.00 L 53.90 57.40 L 70.30 57.30 Z" fill="#231f20" fill-rule="nonzero" group-id="70" id="路径_9254" node-id="71" stroke="none" target-height="52.5" target-width="55.1" target-x="33.9" target-y="18.1"></path></g><g node-id="184"><path d="M 154.80 43.00 L 155.40 47.40 L 157.20 51.30 L 160.10 54.50 L 161.80 55.80 L 165.90 57.60 L 166.10 59.50 L 167.40 62.70 L 168.70 64.80 L 171.60 67.80 L 170.10 65.60 L 169.10 63.20 L 168.70 60.70 L 168.80 58.00 L 181.50 58.10 L 184.20 57.80 L 186.80 57.10 L 189.10 56.00 L 191.20 54.50 L 193.00 52.70 L 194.50 50.60 L 195.60 48.30 L 196.30 45.70 L 196.60 43.00 L 196.30 40.20 L 195.60 37.70 L 194.50 35.40 L 193.00 33.30 L 191.20 31.50 L 189.10 30.00 L 186.80 28.80 L 184.20 28.20 L 181.50 27.90 L 169.90 27.90 L 166.90 28.20 L 164.10 29.10 L 161.50 30.40 L 159.20 32.30 L 157.30 34.60 L 155.90 37.20 L 155.10 40.00 L 154.80 43.00 Z" fill="#ffffff" fill-rule="nonzero" group-id="71" id="路径_9255" node-id="72" stroke="none" target-height="39.9" target-width="41.800003" target-x="154.8" target-y="27.9"></path></g><g node-id="185"><path d="M 171.60 68.10 L 169.90 66.60 L 167.20 63.10 L 165.80 59.80 L 165.50 57.80 L 161.10 55.70 L 159.20 54.10 L 156.30 50.30 L 154.70 45.80 L 154.40 43.40 L 154.60 40.80 L 155.20 38.30 L 156.10 36.10 L 158.90 32.20 L 162.70 29.30 L 164.90 28.40 L 169.90 27.60 L 181.50 27.60 L 184.30 27.80 L 186.90 28.50 L 189.30 29.70 L 191.40 31.20 L 193.30 33.00 L 194.80 35.20 L 195.90 37.60 L 196.60 40.20 L 196.90 43.00 L 196.60 45.80 L 195.90 48.40 L 194.80 50.80 L 193.30 52.90 L 191.40 54.80 L 189.30 56.30 L 186.90 57.50 L 184.30 58.20 L 181.50 58.40 L 169.10 58.40 L 169.00 60.90 L 169.50 63.30 L 170.50 65.60 L 171.90 67.60 L 171.60 68.10 Z M 169.90 28.20 L 165.10 29.00 L 163.00 29.90 L 159.30 32.70 L 156.70 36.50 L 155.80 38.60 L 155.30 41.00 L 155.10 43.50 L 156.00 48.00 L 158.20 52.10 L 161.60 55.20 L 166.00 57.20 L 167.20 61.80 L 169.60 65.40 L 168.70 63.00 L 168.30 60.60 L 168.60 57.80 L 181.50 57.80 L 184.20 57.50 L 186.60 56.80 L 188.90 55.80 L 191.00 54.30 L 192.70 52.50 L 194.20 50.50 L 195.30 48.20 L 196.00 45.70 L 196.20 43.00 L 196.00 40.30 L 195.30 37.90 L 194.20 35.60 L 192.70 33.50 L 191.00 31.70 L 188.90 30.30 L 186.60 29.20 L 184.20 28.50 L 181.50 28.30 Z" fill="#231f20" fill-rule="nonzero" group-id="72" id="路径_9256" node-id="73" stroke="none" target-height="40.5" target-width="42.5" target-x="154.4" target-y="27.6"></path></g><g node-id="186"><path d="M 110.80 0.30 L 86.40 0.30 L 82.70 0.70 L 79.40 1.60 L 76.20 3.10 L 73.40 5.10 L 71.00 7.50 L 69.00 10.30 L 67.50 13.40 L 66.60 16.80 L 66.30 20.40 L 67.00 25.60 L 69.00 30.50 L 72.20 34.60 L 74.20 36.40 L 76.30 37.80 L 81.20 39.80 L 86.40 40.50 L 92.20 40.50 L 92.40 42.80 L 93.40 45.80 L 95.40 49.90 L 101.20 58.70 L 106.00 64.80 L 100.90 56.80 L 98.20 50.60 L 97.30 47.20 L 96.90 43.80 L 97.10 40.50 L 110.80 40.50 L 114.50 40.20 L 117.90 39.30 L 121.00 37.80 L 123.80 35.80 L 126.20 33.40 L 128.20 30.60 L 129.70 27.50 L 130.60 24.10 L 130.90 20.40 L 130.70 17.80 L 129.40 12.70 L 126.80 8.20 L 125.00 6.20 L 123.00 4.50 L 118.50 1.90 L 113.50 0.50 L 110.80 0.30 Z" fill="#ffffff" fill-rule="nonzero" group-id="73" id="路径_9257" node-id="74" stroke="none" target-height="64.5" target-width="64.59999" target-x="66.3" target-y="0.3"></path></g><g node-id="187"><path d="M 106.00 65.10 L 101.10 59.10 L 95.30 50.40 L 93.20 46.30 L 92.20 43.20 L 91.90 40.80 L 82.70 40.50 L 79.30 39.60 L 76.10 38.20 L 73.20 36.10 L 70.70 33.70 L 68.60 30.70 L 67.00 27.40 L 66.10 24.00 L 65.80 20.40 L 66.10 16.90 L 67.00 13.50 L 68.60 10.20 L 70.70 7.20 L 73.20 4.70 L 76.10 2.70 L 79.30 1.20 L 82.70 0.30 L 86.40 0.00 L 110.80 0.00 L 114.50 0.40 L 117.90 1.30 L 121.10 2.80 L 123.90 4.90 L 126.30 7.30 L 128.40 10.20 L 129.90 13.30 L 130.80 16.70 L 131.10 20.40 L 130.80 24.10 L 129.90 27.50 L 128.40 30.70 L 126.30 33.50 L 123.90 36.00 L 121.10 38.00 L 117.90 39.50 L 114.50 40.50 L 110.80 40.80 L 97.40 40.80 L 97.20 44.00 L 97.70 47.30 L 98.60 50.60 L 101.20 56.70 L 106.30 64.60 L 106.00 65.10 Z M 86.40 0.70 L 82.80 1.00 L 79.60 1.80 L 76.40 3.30 L 73.60 5.20 L 71.20 7.60 L 69.20 10.50 L 67.70 13.70 L 66.80 17.00 L 66.50 20.40 L 66.80 23.80 L 67.70 27.10 L 69.20 30.30 L 71.20 33.20 L 73.60 35.60 L 76.40 37.60 L 79.60 39.00 L 82.80 39.90 L 92.40 40.30 L 93.30 44.70 L 94.50 47.60 L 97.10 52.10 L 101.10 58.00 L 99.40 54.60 L 97.40 49.20 L 96.50 43.40 L 96.70 40.50 L 97.10 40.20 L 110.80 40.20 L 114.40 39.80 L 117.70 38.90 L 120.70 37.50 L 123.50 35.50 L 125.80 33.10 L 127.80 30.40 L 129.20 27.30 L 130.10 24.00 L 130.40 20.50 L 130.10 16.90 L 129.20 13.60 L 127.80 10.50 L 125.80 7.80 L 123.50 5.40 L 120.70 3.50 L 117.70 2.00 L 114.40 1.10 L 110.80 0.70 Z" fill="#231f20" fill-rule="nonzero" group-id="74" id="路径_9258" node-id="75" stroke="none" target-height="65.1" target-width="65.3" target-x="65.8" target-y="0"></path></g><g node-id="188"><path d="M 198.20 78.20 L 214.10 78.20 L 216.90 78.50 L 219.60 79.40 L 222.00 80.80 L 224.00 82.80 L 225.60 85.10 L 226.60 87.70 L 227.00 90.50 L 226.80 93.30 L 215.40 156.60 L 173.30 156.60 L 186.00 86.80 L 187.90 83.30 L 190.70 80.60 L 194.20 78.80 L 198.20 78.20 Z" fill="#ffffff" fill-rule="nonzero" group-id="75" id="路径_9259" node-id="76" stroke="none" target-height="78.40001" target-width="53.699997" target-x="173.3" target-y="78.2"></path></g><g node-id="189"><path d="M 215.40 157.00 L 173.30 157.00 L 172.90 156.60 L 185.10 88.70 L 186.50 84.80 L 187.60 83.10 L 190.50 80.30 L 194.10 78.50 L 196.10 78.00 L 214.10 77.90 L 217.00 78.20 L 219.70 79.10 L 222.20 80.60 L 224.30 82.60 L 225.90 85.00 L 226.90 87.70 L 227.30 90.50 L 227.10 93.50 L 215.80 156.80 L 215.40 157.00 Z M 173.70 156.30 L 215.20 156.30 L 226.50 93.30 L 226.70 90.50 L 226.30 87.80 L 225.30 85.30 L 223.80 83.00 L 221.80 81.10 L 219.50 79.70 L 216.90 78.80 L 214.10 78.50 L 198.20 78.50 L 194.30 79.10 L 190.90 80.80 L 188.10 83.50 L 186.30 86.90 L 185.80 88.80 Z" fill="#231f20" fill-rule="nonzero" group-id="76" id="路径_9260" node-id="77" stroke="none" target-height="79.1" target-width="54.40001" target-x="172.9" target-y="77.9"></path></g><g node-id="190"><path d="M 204.90 147.50 L 203.30 153.10 L 202.30 155.10 L 200.90 156.70 L 160.40 156.70 L 169.30 148.40 L 173.60 144.90 L 177.00 142.80 L 178.60 142.60 L 184.80 143.10 L 196.30 145.40 L 204.90 147.50 Z" fill="#231f20" fill-rule="nonzero" group-id="77" id="路径_9261" node-id="78" stroke="none" target-height="14.099991" target-width="44.5" target-x="160.4" target-y="142.6"></path></g><g node-id="191"><path d="M 200.90 157.00 L 160.40 157.00 L 160.10 156.80 L 160.20 156.40 L 169.30 148.00 L 173.50 144.60 L 176.90 142.50 L 178.50 142.20 L 184.50 142.70 L 195.90 144.90 L 205.00 147.20 L 205.20 147.60 L 204.90 149.50 L 203.60 153.30 L 202.60 155.30 L 200.90 157.00 Z M 161.20 156.30 L 200.80 156.30 L 202.80 153.40 L 204.50 147.80 L 187.60 143.90 L 181.20 143.00 L 178.50 142.90 L 177.10 143.10 L 173.40 145.50 L 168.80 149.40 L 161.30 156.30 Z" fill="#231f20" fill-rule="nonzero" group-id="78" id="路径_9262" node-id="79" stroke="none" target-height="14.800003" target-width="45.09999" target-x="160.1" target-y="142.2"></path></g><g node-id="192"><path d="M 149.20 136.90 L 145.60 137.10 L 143.00 137.90 L 138.60 140.80 L 138.20 141.60 L 138.40 142.10 L 140.90 142.60 L 145.10 142.50 L 151.60 141.60 L 151.70 141.10 L 151.30 140.10 L 149.20 136.90 Z" fill="#ffffff" fill-rule="nonzero" group-id="79" id="路径_9263" node-id="80" stroke="none" target-height="5.700012" target-width="13.5" target-x="138.2" target-y="136.9"></path></g><g node-id="193"><path d="M 142.30 142.90 L 139.70 142.80 L 138.20 142.40 L 137.80 141.60 L 139.10 139.90 L 142.90 137.60 L 144.40 137.00 L 148.70 136.60 L 149.40 136.70 L 151.50 139.80 L 152.00 141.40 L 151.80 141.90 L 149.90 142.40 L 142.30 142.90 Z M 149.00 137.20 L 144.60 137.60 L 140.60 139.70 L 138.50 141.60 L 139.10 142.10 L 140.90 142.20 L 148.20 141.90 L 151.30 141.30 L 150.90 140.00 L 149.00 137.20 Z" fill="#231f20" fill-rule="nonzero" group-id="80" id="路径_9264" node-id="81" stroke="none" target-height="6.299988" target-width="14.199997" target-x="137.8" target-y="136.6"></path></g><g node-id="194"><path d="M 179.30 94.00 L 177.40 96.10 L 173.90 102.70 L 171.50 108.90 L 169.10 116.20 L 166.10 127.00 L 165.50 127.70 L 163.70 129.00 L 158.70 131.50 L 146.00 136.80 L 151.40 140.90 L 160.30 141.60 L 168.40 141.40 L 172.50 141.00 L 178.30 139.50 L 181.30 137.50 L 182.70 134.50 L 183.10 132.00 L 183.30 123.40 L 182.40 113.40 L 179.30 94.00 Z" fill="#ff595e" fill-rule="nonzero" group-id="81" id="路径_9265" node-id="82" stroke="none" target-height="47.600006" target-width="37.300003" target-x="146" target-y="94"></path></g><g node-id="195"><path d="M 179.30 94.00 L 178.30 99.70 L 177.90 105.40 L 178.00 111.10 L 178.90 119.80 L 178.70 126.00 L 176.70 134.90 L 173.30 144.30 L 180.40 147.60 L 183.80 148.70 L 190.80 149.90 L 196.90 149.80 L 200.00 149.30 L 203.10 148.30 L 206.30 146.80 L 206.10 125.40 L 205.30 114.20 L 203.90 104.60 L 202.30 99.80 L 199.30 95.80 L 196.90 93.50 L 194.20 91.60 L 191.50 90.30 L 187.60 89.70 L 185.60 90.10 L 183.60 90.80 L 181.60 92.10 L 179.30 94.00 Z" fill="#ff595e" fill-rule="nonzero" group-id="82" id="路径_9266" node-id="83" stroke="none" target-height="60.199997" target-width="33" target-x="173.3" target-y="89.7"></path></g><g node-id="196"><path d="M 181.70 93.30 L 183.20 117.80 L 192.00 91.70 Z" fill="#231f20" fill-rule="nonzero" group-id="83" id="路径_9267" node-id="84" stroke="none" target-height="26.100006" target-width="10.300003" target-x="181.7" target-y="91.7"></path></g><g node-id="197"><path d="M 183.20 118.20 L 182.90 117.90 L 181.50 93.10 L 191.90 91.40 L 192.30 91.80 L 183.60 117.90 L 183.20 118.20 Z M 182.10 93.60 L 183.40 116.10 L 191.50 92.20 Z" fill="#231f20" fill-rule="nonzero" group-id="84" id="路径_9268" node-id="85" stroke="none" target-height="26.799995" target-width="10.800003" target-x="181.5" target-y="91.4"></path></g><g node-id="198"><path d="M 164.30 136.70 L 157.20 135.30 L 155.10 135.30 L 152.50 136.40 L 149.30 138.30 L 148.50 139.10 L 148.10 140.60 L 148.60 142.10 L 149.60 142.50 L 165.20 142.20 Z" fill="#ffffff" fill-rule="nonzero" group-id="85" id="路径_9269" node-id="86" stroke="none" target-height="7.199997" target-width="17.09999" target-x="148.1" target-y="135.3"></path></g><g node-id="199"><path d="M 149.80 142.80 L 148.90 142.70 L 148.10 142.00 L 147.80 139.80 L 148.30 138.90 L 151.50 136.60 L 155.80 134.90 L 160.00 135.40 L 164.40 136.40 L 165.40 142.40 L 149.80 142.80 Z M 156.10 135.50 L 152.00 137.10 L 148.90 139.20 L 148.50 139.90 L 148.50 140.80 L 148.80 141.70 L 149.60 142.10 L 164.80 141.80 L 164.00 136.90 L 156.10 135.50 Z" fill="#231f20" fill-rule="nonzero" group-id="86" id="路径_9270" node-id="87" stroke="none" target-height="7.900009" target-width="17.59999" target-x="147.8" target-y="134.9"></path></g><g node-id="200"><path d="M 192.60 99.70 L 193.70 120.50 L 193.40 125.80 L 193.10 127.70 L 192.60 128.10 L 161.80 135.20 L 163.60 142.80 L 171.80 143.60 L 179.90 143.80 L 188.80 143.00 L 193.20 142.10 L 197.10 140.80 L 199.40 139.40 L 201.40 137.50 L 203.20 135.00 L 204.60 132.10 L 206.60 125.50 L 207.40 120.10 L 207.70 114.60 L 207.40 109.20 L 206.60 104.60 L 205.80 101.60 L 203.70 97.70 L 201.90 96.00 L 199.30 94.40 L 196.90 94.10 L 194.70 95.40 L 193.70 96.70 L 192.60 99.70 Z" fill="#ff595e" fill-rule="nonzero" group-id="87" id="路径_9271" node-id="88" stroke="none" target-height="49.700005" target-width="45.899994" target-x="161.8" target-y="94.1"></path></g><g node-id="201"><path d="M 129.20 142.80 L 162.80 142.80 L 162.80 145.70 L 129.20 145.70 Z" fill="#ffffff" fill-rule="nonzero" group-id="88" id="矩形_3251" node-id="89" stroke="none" target-height="2.899994" target-width="33.600006" target-x="129.2" target-y="142.8"></path></g><g node-id="202"><path d="M 162.80 146.10 L 129.20 146.10 L 128.80 145.70 L 128.90 142.60 L 162.80 142.50 L 163.10 142.80 L 163.10 145.70 L 162.80 146.10 Z M 129.50 145.40 L 162.50 145.40 L 162.50 143.10 L 129.50 143.10 Z" fill="#231f20" fill-rule="nonzero" group-id="89" id="路径_9272" node-id="90" stroke="none" target-height="3.600006" target-width="34.300003" target-x="128.8" target-y="142.5"></path></g><g node-id="203"><path d="M 114.20 112.90 L 129.20 143.00 L 126.60 144.30 L 111.60 114.20 Z" fill="#ffffff" fill-rule="nonzero" group-id="90" id="矩形_3252" node-id="91" stroke="none" target-height="31.400002" target-width="17.599998" target-x="111.6" target-y="112.9"></path></g><g node-id="204"><path d="M 126.60 144.60 L 111.30 114.30 L 111.40 113.90 L 114.00 112.60 L 114.50 112.70 L 129.50 142.80 L 129.30 143.30 L 126.60 144.60 Z M 112.00 114.30 L 126.70 143.80 L 128.70 142.80 L 114.10 113.30 Z" fill="#231f20" fill-rule="nonzero" group-id="91" id="路径_9273" node-id="92" stroke="none" target-height="32.000008" target-width="18.199997" target-x="111.3" target-y="112.6"></path></g><g node-id="205"><path d="M 162.80 135.30 L 162.50 135.00 L 162.70 134.60 L 179.60 130.50 L 186.40 128.50 L 189.60 127.00 L 190.40 123.80 L 192.50 101.70 L 192.90 101.40 L 193.20 101.70 L 191.80 118.20 L 191.00 124.20 L 190.10 127.40 L 187.00 128.90 L 180.70 130.90 L 162.90 135.30 Z" fill="#231f20" fill-rule="nonzero" group-id="92" id="路径_9274" node-id="93" stroke="none" target-height="33.9" target-width="30.699997" target-x="162.5" target-y="101.4"></path></g><g node-id="206"><path d="M 173.50 143.60 L 164.70 143.30 L 164.40 143.00 L 164.70 142.60 L 175.10 142.90 L 184.30 142.40 L 188.90 141.70 L 193.00 140.60 L 195.60 139.60 L 197.50 138.40 L 199.00 137.00 L 201.00 133.80 L 202.60 130.40 L 204.40 123.70 L 205.10 116.10 L 205.50 115.80 L 205.80 116.10 L 205.70 118.40 L 205.10 123.80 L 203.20 130.70 L 201.60 134.10 L 199.50 137.40 L 198.10 138.70 L 196.20 140.00 L 193.60 141.10 L 190.10 142.10 L 185.50 142.90 L 173.50 143.60 Z" fill="#231f20" fill-rule="nonzero" group-id="93" id="路径_9275" node-id="94" stroke="none" target-height="27.800003" target-width="41.40001" target-x="164.4" target-y="115.8"></path></g><g node-id="207"><path d="M 177.10 130.40 L 176.80 130.00 L 177.10 123.70 L 176.80 98.50 L 177.40 98.70 L 177.80 123.70 L 177.50 130.00 L 177.10 130.30 Z" fill="#231f20" fill-rule="nonzero" group-id="94" id="路径_9276" node-id="95" stroke="none" target-height="31.899994" target-width="1" target-x="176.8" target-y="98.5"></path></g><g node-id="208"><path d="M 188.20 156.70 L 191.10 151.70 L 195.10 147.70 L 197.50 146.10 L 200.10 144.80 L 205.90 143.30 L 211.70 142.60 L 216.10 142.50 L 217.90 142.50 L 215.40 156.70 Z" fill="#ffffff" fill-rule="nonzero" group-id="95" id="路径_9277" node-id="96" stroke="none" target-height="14.199997" target-width="29.699997" target-x="188.2" target-y="142.5"></path></g><g node-id="209"><path d="M 215.40 157.10 L 188.20 157.10 L 187.90 156.60 L 189.20 154.00 L 192.70 149.30 L 197.30 145.80 L 200.00 144.50 L 202.70 143.60 L 208.80 142.50 L 217.90 142.20 L 218.20 142.60 L 215.60 156.70 L 215.40 157.10 Z M 188.70 156.40 L 215.10 156.40 L 217.50 142.90 L 213.50 142.90 L 207.00 143.40 L 203.50 144.10 L 200.30 145.10 L 197.80 146.40 L 193.40 149.70 L 190.00 153.90 L 188.70 156.40 Z" fill="#231f20" fill-rule="nonzero" group-id="96" id="路径_9278" node-id="97" stroke="none" target-height="14.900009" target-width="30.300003" target-x="187.9" target-y="142.2"></path></g><g node-id="210"><path d="M 180.60 68.70 L 178.40 74.10 L 175.20 80.10 L 170.60 86.90 L 173.90 86.10 L 176.60 84.10 L 174.70 89.40 L 176.70 89.90 L 178.70 89.90 L 180.70 89.60 L 182.60 88.80 L 184.40 87.40 L 185.70 85.70 L 186.70 83.80 L 187.30 81.80 L 188.00 77.50 L 189.10 67.80 Z" fill="#ffffff" fill-rule="nonzero" group-id="97" id="路径_9279" node-id="98" stroke="none" target-height="22.099998" target-width="18.5" target-x="170.6" target-y="67.8"></path></g><g node-id="211"><path d="M 177.90 90.30 L 176.30 90.20 L 174.40 89.60 L 175.90 85.30 L 174.30 86.30 L 172.50 86.90 L 170.60 87.20 L 170.30 86.60 L 174.90 79.90 L 179.30 71.50 L 180.50 68.40 L 189.00 67.40 L 189.40 67.80 L 188.40 77.50 L 187.70 81.90 L 187.00 84.00 L 186.00 85.90 L 184.70 87.60 L 182.80 89.00 L 181.30 89.70 L 177.90 90.30 Z M 175.20 89.20 L 178.90 89.60 L 182.50 88.40 L 184.20 87.10 L 185.50 85.50 L 186.40 83.70 L 187.00 81.70 L 187.70 77.40 L 188.70 68.10 L 180.80 69.00 L 179.90 71.80 L 177.50 76.60 L 174.60 81.70 L 171.30 86.50 L 173.20 86.00 L 174.90 85.20 L 176.40 83.90 L 176.80 83.80 L 177.00 84.20 Z" fill="#231f20" fill-rule="nonzero" group-id="98" id="路径_9280" node-id="99" stroke="none" target-height="22.900002" target-width="19.09999" target-x="170.3" target-y="67.4"></path></g><g node-id="212"><path d="M 183.20 86.70 L 181.70 94.30 L 181.90 95.30 L 183.00 96.70 L 185.30 97.00 L 187.20 96.60 L 189.00 95.80 L 190.50 94.60 L 191.80 93.10 L 195.20 71.50 L 185.80 69.10 L 185.60 69.50 L 181.90 69.40 L 179.20 78.20 L 178.70 83.40 L 178.90 84.40 L 179.90 85.80 L 181.00 86.30 L 183.20 86.70 Z" fill="#ffffff" fill-rule="nonzero" group-id="99" id="路径_9281" node-id="100" stroke="none" target-height="27.900002" target-width="16.5" target-x="178.7" target-y="69.1"></path></g><g node-id="213"><path d="M 184.80 97.30 L 183.40 97.10 L 182.20 96.40 L 181.40 94.30 L 182.90 87.00 L 180.00 86.20 L 178.70 84.60 L 178.40 83.40 L 178.90 78.10 L 181.60 69.30 L 183.10 69.00 L 185.50 69.20 L 185.80 68.80 L 195.30 71.10 L 195.50 71.50 L 192.00 93.30 L 190.70 94.90 L 189.10 96.10 L 187.30 96.90 L 184.80 97.30 Z M 183.20 86.40 L 183.50 86.80 L 182.00 93.30 L 182.10 94.70 L 182.60 95.90 L 184.30 96.70 L 187.10 96.30 L 190.30 94.40 L 191.50 93.00 L 194.90 71.70 L 186.10 69.50 L 185.20 69.80 L 182.10 69.60 L 179.50 78.20 L 179.10 83.40 L 179.40 84.70 L 180.10 85.50 L 181.10 86.00 L 183.30 86.40 Z" fill="#231f20" fill-rule="nonzero" group-id="100" id="路径_9282" node-id="101" stroke="none" target-height="28.5" target-width="17.100006" target-x="178.4" target-y="68.8"></path></g><g node-id="214"><path d="M 185.70 76.50 L 183.30 79.60 L 183.30 80.00 L 183.80 80.40 L 185.20 80.60" fill="#ffffff" fill-rule="nonzero" group-id="101" id="路径_9283" node-id="102" stroke="none" target-height="4.0999985" target-width="2.399994" target-x="183.3" target-y="76.5"></path></g><g node-id="215"><path d="M 185.00 81.00 L 183.40 80.60 L 183.00 80.20 L 183.00 79.60 L 183.60 78.50 L 185.70 76.20 L 185.90 76.80 L 183.60 79.90 L 185.50 80.40 L 185.30 81.00 Z" fill="#231f20" fill-rule="nonzero" group-id="102" id="路径_9284" node-id="103" stroke="none" target-height="4.800003" target-width="2.899994" target-x="183" target-y="76.2"></path></g><g node-id="216"><path d="M 183.40 74.60 L 183.60 75.40 L 183.40 75.90 L 182.90 75.80 L 182.90 75.20 L 183.40 74.60 Z" fill="#231f20" fill-rule="nonzero" group-id="103" id="椭圆_123" node-id="104" stroke="none" target-height="1.300003" target-width="0.7000122" target-x="182.9" target-y="74.6"></path></g><g node-id="217"><path d="M 188.80 76.10 L 189.00 76.90 L 188.70 77.40 L 188.20 77.30 L 188.20 76.70 L 188.80 76.10 Z" fill="#231f20" fill-rule="nonzero" group-id="104" id="椭圆_124" node-id="105" stroke="none" target-height="1.300003" target-width="0.80000305" target-x="188.2" target-y="76.1"></path></g><g node-id="218"><path d="M 184.50 73.60 L 185.20 72.30 L 185.70 73.90 L 189.90 75.10 L 191.10 73.40 L 191.00 75.80 L 193.20 76.00 L 192.40 77.60 L 188.90 89.70 L 187.30 91.50 L 188.50 91.70 L 190.70 91.00 L 194.00 88.40 L 196.00 86.00 L 194.80 92.60 L 197.00 92.20 L 199.10 90.20 L 201.00 85.50 L 201.40 82.50 L 201.40 71.30 L 200.80 69.20 L 199.70 67.30 L 197.30 65.20 L 192.20 63.30 L 189.60 62.90 L 187.40 62.90 L 185.20 63.40 L 183.30 64.20 L 181.60 65.40 L 180.30 66.90 L 178.70 70.40 L 178.50 72.30 L 184.50 73.60 Z" fill="#ffffff" fill-rule="nonzero" group-id="105" id="路径_9285" node-id="106" stroke="none" target-height="29.699997" target-width="22.899994" target-x="178.5" target-y="62.9"></path></g><g node-id="219"><path d="M 195.30 92.90 L 194.70 92.90 L 194.40 92.50 L 195.40 87.30 L 191.90 90.60 L 190.00 91.70 L 188.50 92.00 L 187.00 91.50 L 188.50 89.50 L 192.60 76.20 L 190.70 75.90 L 190.70 74.60 L 189.80 75.40 L 185.60 74.20 L 185.10 73.10 L 184.40 73.90 L 178.40 72.60 L 178.10 72.20 L 178.30 70.20 L 179.00 68.40 L 180.00 66.60 L 181.30 65.10 L 183.10 63.90 L 185.10 63.00 L 187.20 62.60 L 189.60 62.50 L 192.30 62.90 L 197.40 64.90 L 199.90 67.00 L 201.00 69.00 L 201.70 71.20 L 201.90 73.50 L 201.60 83.70 L 201.20 86.20 L 199.30 90.30 L 198.10 91.70 L 196.80 92.60 L 195.30 92.90 Z M 195.20 92.20 L 196.50 92.00 L 197.80 91.20 L 198.80 90.00 L 200.50 86.00 L 201.00 83.60 L 201.30 73.60 L 201.10 71.30 L 200.50 69.30 L 199.40 67.40 L 197.00 65.40 L 191.70 63.50 L 188.70 63.20 L 186.10 63.40 L 183.80 64.30 L 181.80 65.70 L 180.60 67.00 L 179.10 70.20 L 178.80 72.00 L 184.30 73.30 L 185.20 71.90 L 185.90 73.60 L 189.80 74.70 L 190.80 73.20 L 191.20 73.10 L 191.40 73.40 L 191.30 75.40 L 193.20 75.60 L 193.50 75.90 L 192.40 78.70 L 189.30 89.50 L 188.00 91.30 L 190.40 90.80 L 193.70 88.10 L 195.60 85.80 L 196.10 85.70 L 196.30 86.10 Z" fill="#231f20" fill-rule="nonzero" group-id="106" id="路径_9286" node-id="107" stroke="none" target-height="30.400002" target-width="23.799988" target-x="178.1" target-y="62.5"></path></g><g node-id="220"><path d="M 183.20 86.70 L 186.30 86.40 L 188.30 85.70 L 185.50 89.50 L 184.00 90.80 L 182.10 91.80 Z" fill="#231f20" fill-rule="nonzero" group-id="107" id="路径_9287" node-id="108" stroke="none" target-height="6.100006" target-width="6.199997" target-x="182.1" target-y="85.7"></path></g><g node-id="221"><path d="M 182.10 92.10 L 181.80 91.70 L 182.90 86.60 L 183.20 86.40 L 186.20 86.00 L 188.10 85.40 L 188.50 85.40 L 188.60 85.80 L 185.70 89.80 L 184.10 91.00 L 182.10 92.10 Z M 183.50 87.00 L 182.60 91.20 L 184.50 89.90 L 186.10 88.30 L 187.50 86.40 L 183.50 87.00 Z" fill="#231f20" fill-rule="nonzero" group-id="108" id="路径_9288" node-id="109" stroke="none" target-height="6.699997" target-width="6.800003" target-x="181.8" target-y="85.4"></path></g><path d="M 183.00 84.90 L 182.50 84.70 L 182.20 84.10 L 181.90 81.90 L 185.10 82.50 L 184.20 84.10 L 183.00 84.90 Z M 182.50 82.60 L 183.00 84.20 L 184.20 82.90 Z" fill="#231f20" fill-rule="nonzero" group-id="109" id="路径_9289" node-id="110" stroke="none" target-height="3" target-width="3.2000122" target-x="181.9" target-y="81.9"></path></svg>